<svg width="22" height="20" viewBox="0 0 22 20" fill="none" xmlns="http://www.w3.org/2000/svg">
<path d="M18.6849 1.66802C15.8923 -0.235998 12.4439 0.652543 10.5822 2.83158C8.72052 0.652543 5.27214 -0.246576 2.47958 1.66802C0.998677 2.68349 0.0678247 4.39711 0.00435752 6.20592C-0.143733 10.3101 3.49505 13.5999 9.04843 18.6455L9.15421 18.7407C9.95813 19.4706 11.1957 19.4706 11.9997 18.7301L12.116 18.6243C17.6694 13.5893 21.2976 10.2996 21.1601 6.19535C21.0966 4.39711 20.1658 2.68349 18.6849 1.66802ZM10.688 17.0694L10.5822 17.1752L10.4764 17.0694C5.44138 12.5103 2.11993 9.49564 2.11993 6.43864C2.11993 4.32306 3.70661 2.73638 5.82218 2.73638C7.45118 2.73638 9.03786 3.78359 9.59848 5.23276H11.5765C12.1266 3.78359 13.7133 2.73638 15.3423 2.73638C17.4578 2.73638 19.0445 4.32306 19.0445 6.43864C19.0445 9.49564 15.7231 12.5103 10.688 17.0694Z" fill="#00ccff"/>
</svg>
